<?xml version="1.0" encoding="UTF-8"?>
<svg width="198px" height="111px" viewBox="0 0 198 111" version="1.1" xmlns="http://www.w3.org/2000/svg" xmlns:xlink="http://www.w3.org/1999/xlink">
    <title>Group 40</title>
    <defs>
        <polygon id="path-1" points="0 0 8.89271875 0 8.89271875 6.35893177 0 6.35893177"></polygon>
    </defs>
    <g id="11.be-2022-new-design" stroke="none" stroke-width="1" fill="none" fill-rule="evenodd">
        <g id="11.be-2022-/-blokken-&amp;-paragraphs" transform="translate(-226.000000, -24.000000)">
            <g id="Group-40" transform="translate(226.000000, 24.000000)">
                <path d="M47.1243802,0 L30.9469011,0 C28.4906407,0 26.207625,0.887229167 24.2107813,2.40442187 L0.970541697,20.0468698 C-0.985833303,21.5929688 0.219171905,24.9682552 2.77082295,24.9682552 L19.3845938,24.9682552 C20.9162396,24.9682552 22.1590157,26.2110313 22.1590157,27.7426771 L22.1590157,108.196094 C22.1590157,109.72774 23.401599,110.970323 24.9332448,110.970323 L47.1301615,110.970323 C48.6618073,110.970323 49.9043907,109.72774 49.9043907,108.196094 L49.9043907,27.7426771 C49.9043907,26.2110313 48.6618073,24.9682552 47.1301615,24.9682552 L30.5106094,24.9682552 C27.9589584,24.9682552 26.7566511,21.5929688 28.7101354,20.0468698 L48.9333334,4.70458854 C50.9448229,3.19336979 49.7338438,0 47.1243802,0" id="Fill-34" fill="#FB603D"></path>
                <path d="M102.609542,0 L86.4320625,0 C83.9758021,0 81.6927865,0.887229167 79.6959427,2.40442187 L56.4557032,20.0468698 C54.4993282,21.5929688 55.7043334,24.9682552 58.2561771,24.9682552 L74.8699479,24.9682552 C76.4014011,24.9682552 77.6441771,26.2110313 77.6441771,27.7426771 L77.6441771,108.196094 C77.6441771,109.72774 78.8867604,110.970323 80.4184063,110.970323 L102.615323,110.970323 C104.146969,110.970323 105.389552,109.72774 105.389552,108.196094 L105.389552,27.7426771 C105.389552,26.2110313 104.146969,24.9682552 102.615323,24.9682552 L85.9957709,24.9682552 C83.4441198,24.9682552 82.2418125,21.5929688 84.1954896,20.0468698 L104.418495,4.70458854 C106.429984,3.19336979 105.219005,0 102.609542,0" id="Fill-36" fill="#FB603D"></path>
                <path d="M158.094742,0 L141.917263,0 C139.461002,0 137.177986,0.887229167 135.181143,2.40442187 L111.940903,20.0468698 C109.984528,21.5929688 111.189533,24.9682552 113.741184,24.9682552 L130.354955,24.9682552 C131.886601,24.9682552 133.129377,26.2110313 133.129377,27.7426771 L133.129377,108.196094 C133.129377,109.72774 134.37196,110.970323 135.903606,110.970323 L158.100523,110.970323 C159.632169,110.970323 160.874752,109.72774 160.874752,108.196094 L160.874752,27.7426771 C160.874752,26.2110313 159.632169,24.9682552 158.100523,24.9682552 L141.480971,24.9682552 C138.929127,24.9682552 137.727013,21.5929688 139.680497,20.0468698 L159.903695,4.70458854 C161.915184,3.19336979 160.704205,0 158.094742,0" id="Fill-38" fill="#FB603D"></path>
            </g>
        </g>
    </g>
</svg>
